<svg id="visual" viewBox="0 0 1227 600" width="1227" height="600" xmlns="http://www.w3.org/2000/svg" xmlns:xlink="http://www.w3.org/1999/xlink" version="1.1"><path d="M0 99L34.2 100.5C68.3 102 136.7 105 204.8 101.2C273 97.3 341 86.7 409.2 85.8C477.3 85 545.7 94 613.8 99.5C682 105 750 107 818.2 104.2C886.3 101.3 954.7 93.7 1022.8 92.8C1091 92 1159 98 1193 101L1227 104L1227 0L1193 0C1159 0 1091 0 1022.8 0C954.7 0 886.3 0 818.2 0C750 0 682 0 613.8 0C545.7 0 477.3 0 409.2 0C341 0 273 0 204.8 0C136.7 0 68.3 0 34.2 0L0 0Z" fill="#4f46e5" stroke-linecap="round" stroke-linejoin="miter"></path></svg>